<svg xmlns="http://www.w3.org/2000/svg" width="60.619" height="53.04" viewBox="0 0 60.619 53.04">
  <g id="Group_198" data-name="Group 198" transform="translate(-5311 -4550.647)">
    <path id="Path_94" data-name="Path 94" d="M5.713,193.719c3.1,6.726,6.908,9.582,12.132,9.078,5.383-.52,8.273-3.494,10.16-10.638.38-1.438,1.047-2.331,2.531-2.519,2.026,1.386,2.026,1.386,2.509,3.5,1.328,5.8,5,9.263,10.265,9.665,4.881.372,9.068-2.572,11.285-7.926.193-.468.445-.91.57-1.163,1.8-1.19,4.517.617,5.517-2.107-1.334-2.33-3.795-.581-5.348-1.735-4.569-12.267-16.459-11.408-21.925-2.662a9.885,9.885,0,0,0-5.94-.016c-5.873-9.3-17.76-8.907-21.926,2.711-1.55,1.192-4.371-.86-5.253,2.05,1.343,2.106,3.55.641,5.424,1.763M35.8,191.2a8.465,8.465,0,0,1,8.374-7.7,8.341,8.341,0,0,1,7.929,8.532,8.062,8.062,0,0,1-8.548,7.782A8.176,8.176,0,0,1,35.8,191.2m-18.876-7.7a8.444,8.444,0,0,1,8.192,8.291,8.208,8.208,0,0,1-8.334,8.055,8.069,8.069,0,0,1-7.939-8.009,8.266,8.266,0,0,1,8.081-8.337" transform="translate(5310.938 4370)"/>
    <path id="Path_95" data-name="Path 95" d="M60.54,216.41c-.509-1.347-1.625-1.315-2.645-1.315-16.3,0-32.605-.09-48.905.082-5.25.056-8.637,3.776-8.884,9.041a77.4,77.4,0,0,0,.005,8.212c.3,5.05,3.776,8.585,8.841,8.624,16.171.121,32.344.076,48.516.062,1.2,0,2.736.375,3.051-1.594-1-1.784-2.732-1.131-4.178-1.136-15.128-.042-30.258-.011-45.386-.049-5.778-.014-8.038-2.32-8.092-8.046-.009-.913,0-1.826,0-2.74-.02-7.78,1.682-9.51,9.321-9.507,14.738,0,29.476.024,44.213-.034,1.5-.005,3.535.784,4.142-1.6" transform="translate(5311 4362.543)"/>
    <path id="Path_96" data-name="Path 96" d="M55.843,225.018q-21.315-.027-42.63,0c-1.231,0-2.752-.273-2.9,1.683,3.184,1.911,45.884,1.788,48.713-.241-.773-1.644-2.048-1.443-3.181-1.445" transform="translate(5308.767 4360.392)"/>
    <path id="Path_97" data-name="Path 97" d="M58.772,236.142c-3.007-2.077-46.495-1.8-48.818.549,4.853,1.958,46.932,1.369,48.818-.549" transform="translate(5308.844 4358.283)"/>
  </g>
</svg>
