<svg xmlns="http://www.w3.org/2000/svg" width="61.864" height="62.911" viewBox="0 0 61.864 62.911">
  <g id="Group_197" data-name="Group 197" transform="translate(-5469.465 -4370)">
    <path id="Path_98" data-name="Path 98" d="M220.289,27.349c0-1.265.3-2.741-2.223-3.358-1.984,8.746.424,17.74-1.39,26.675-8.87.975-17.552,1.9-26.107,7.411V27.838c-1.2.346-1.862.4-1.9.568-1.833,9.492,0,19.141-1.081,29.3-7.957-5.444-17.071-5.758-25.687-7.279V11.438c8.941-.578,16.808,1.868,24.588,5.865.415-3.354-1.337-3.827-2.662-4.5-5.414-2.728-11.251-3.846-17.236-4.391-6.006-.548-8.094,1.239-8.115,7.211-.034,9.946,0,19.892,0,29.837,0,7.037,1.093,8.1,8.194,8.805,8.505.849,16.9,2.106,22.8,10.338,3.078-5.245,7.856-7.309,13.026-8.736a60.39,60.39,0,0,1,11.369-1.79c4.734-.375,6.34-2.085,6.405-6.841.092-6.63.032-13.261.01-19.891" transform="translate(5311 4368.303)"/>
    <path id="Path_99" data-name="Path 99" d="M206.557,32.706c.443,1.518-.144,3.206.535,4.3.924,1.378,2.238.854,3.152,1.52.861.916-.065,3.136,2.1,3.2,1.814-.444.944-2.336,1.777-3.2,1.037-.683,2.541-.18,3.33-1.851.091-1.089.212-2.531.328-3.921,4.679-5.949,4.882-11,.633-14.833a9.425,9.425,0,0,0-12.381-.028c-4.187,3.71-4,8.788.531,14.814m1.3-12.406a6.062,6.062,0,0,1,8.862.182c2.864,3,2.309,6.324-1.9,10.766-.139,1.015-.3,2.18-.453,3.3-1.267.954-2.593.424-3.716.5-1.474-1.092-.448-2.678-1.392-4.094-3.994-4.389-4.491-7.672-1.4-10.653" transform="translate(5301.915 4366.821)"/>
    <path id="Path_100" data-name="Path 100" d="M185.763,28.084c-2.453-3.238-13.5-5.783-17-3.917,1.614,2.107,14.674,5.116,17,3.917" transform="translate(5308.9 4365.201)"/>
    <path id="Path_101" data-name="Path 101" d="M168.347,51.139,185.293,55.2c-1.88-4.29-12.887-6.905-16.946-4.066" transform="translate(5308.985 4359.813)"/>
    <path id="Path_102" data-name="Path 102" d="M168.443,36.623c2.5,2.608,15.409,5.2,17.26,3.687-3.1-2.9-12.934-5.116-17.26-3.687" transform="translate(5308.965 4362.622)"/>
    <path id="Path_103" data-name="Path 103" d="M213.965,0c-1.566,3.016-2.048,5.112.066,7.38,2.094-2.652,2.131-3.541-.066-7.38" transform="translate(5299.958 4370)"/>
    <path id="Path_104" data-name="Path 104" d="M229.549,8.881c-1.955,1.3-4.444,2.067-3.712,5.687,4.431-2.145,4.9-2.9,3.712-5.687" transform="translate(5297.288 4368.189)"/>
    <path id="Path_105" data-name="Path 105" d="M202.249,14.227c.176-3.281-1.84-4.34-4.795-5.428.578,3.825,1.242,4.533,4.795,5.428" transform="translate(5303.049 4368.206)"/>
  </g>
</svg>
