<svg xmlns="http://www.w3.org/2000/svg" xmlns:xlink="http://www.w3.org/1999/xlink" width="61.613" height="29.972" viewBox="0 0 61.613 29.972"><defs><clipPath id="a"><rect width="61.613" height="29.972" fill="none"/></clipPath></defs><g transform="translate(0)"><rect width="2.827" height="17.531" transform="translate(16.04)" fill="#010202"/><g transform="translate(0)"><g clip-path="url(#a)"><path d="M193.129,61.756h2.827V49.88h-2.827v6.272h.051A2.729,2.729,0,0,1,190.3,59.03c-1.645,0-2-1.594-2-2.57V49.88H185.47v6.683a6.051,6.051,0,0,0,1.388,3.959,4.8,4.8,0,0,0,3.393,1.233,4.009,4.009,0,0,0,2.879-.977Z" transform="translate(-164.443 -44.225)" fill="#010202"/><path d="M285.518,28.791h2.827V19.743H290.4V16.915h-2.057V12.7h-2.827v4.215H283.41v2.827h2.108Z" transform="translate(-251.279 -11.26)" fill="#010202"/><path d="M355.668,60.085a6.223,6.223,0,0,0,4.215-1.594l.412-.412-1.953-1.953-.412.514a3.385,3.385,0,0,1-5.655-2.57,3.211,3.211,0,0,1,3.393-3.393,3.059,3.059,0,0,1,2.262.874l.412.359,1.85-1.85-.412-.412a6.423,6.423,0,0,0-4.113-1.594,5.79,5.79,0,0,0-6.066,6.014,5.972,5.972,0,0,0,6.068,6.017" transform="translate(-309.965 -42.605)" fill="#010202"/><path d="M458.14,10.907c0-2.622,1.953-2.879,2.57-2.879,1.645,0,1.645,1.594,1.645,2.57V17.54h2.828V10.548a5.084,5.084,0,0,0-1.233-3.856,4.22,4.22,0,0,0-3.085-1.233,4,4,0,0,0-2.776.977V.01H455.26V17.541h2.828V10.908h.052Z" transform="translate(-403.646 -0.009)" fill="#010202"/><path d="M384.08,85.444a2,2,0,1,0,2-2,2.006,2.006,0,0,0-2,2" transform="translate(-340.536 -73.98)" fill="#e52421"/><path d="M8.071,21.5a7.869,7.869,0,0,0,5.86-2.468l.412-.412-1.85-1.953-.359.514a5.89,5.89,0,0,1-4.061,1.645c-3.187,0-5.45-2.468-5.45-5.809,0-3.393,2.262-5.809,5.4-5.809a6.186,6.186,0,0,1,4.061,1.645l.412.412,1.85-1.85L13.931,7A7.925,7.925,0,0,0,8.071,4.53,8.119,8.119,0,0,0,0,13.012C0,17.844,3.444,21.5,8.071,21.5" transform="translate(0 -4.016)" fill="#010202"/><path d="M11.811,218.253H10.782v.925H9.5l2.057-2.879h-1.13L8.16,219.333v.72h2.571v1.028h1.079v-1.028h.771v-.874h-.771Z" transform="translate(-7.235 -191.778)" fill="#010202"/><path d="M51.458,247.13a.5.5,0,0,0-.463.205.651.651,0,0,0-.205.463.5.5,0,0,0,.205.463.764.764,0,0,0,.463.205.5.5,0,0,0,.463-.205.764.764,0,0,0,.205-.463.7.7,0,0,0-.668-.668" transform="translate(-45.032 -219.112)" fill="#010202"/><path d="M68.744,216.007a2.051,2.051,0,0,0-1.594-.617,1.883,1.883,0,0,0-.925.205,1.783,1.783,0,0,0-.668.566,1.554,1.554,0,0,0-.257.823,1.238,1.238,0,0,0,.205.771,1.505,1.505,0,0,0,.617.514,2.148,2.148,0,0,0,.823.205,1.645,1.645,0,0,0,1.182-.412,1.551,1.551,0,0,1-.359,1.028,1.279,1.279,0,0,1-.977.359,1.474,1.474,0,0,1-.874-.257l-.412.823a1.719,1.719,0,0,0,.617.257,3.5,3.5,0,0,0,.72.1,2.649,2.649,0,0,0,1.286-.308,2.377,2.377,0,0,0,.874-.874,3.067,3.067,0,0,0,.308-1.388,2.6,2.6,0,0,0-.566-1.8m-.874,1.44a.772.772,0,0,1-.566.205.641.641,0,0,1-.566-.205.659.659,0,0,1-.205-.514.6.6,0,0,1,.205-.514,1.073,1.073,0,0,1,.566-.205.819.819,0,0,1,.617.205.659.659,0,0,1,.205.514.967.967,0,0,1-.256.514" transform="translate(-57.897 -190.971)" fill="#010202"/><path d="M102.022,207.68l-2.262,6.427h.977l2.211-6.427Z" transform="translate(-88.45 -184.135)" fill="#010202"/><path d="M127.9,218.1h-.412l.051-.925h2V216.3h-2.931l-.257,2.673h1.233a1.754,1.754,0,0,1,.874.154.544.544,0,0,1,0,.925,1.162,1.162,0,0,1-.668.154,3,3,0,0,1-.72-.1,1.716,1.716,0,0,1-.617-.308l-.412.823a2,2,0,0,0,.823.359,3.215,3.215,0,0,0,.977.154,2.248,2.248,0,0,0,1.079-.205,1.4,1.4,0,0,0,.873-1.337,1.326,1.326,0,0,0-.463-1.079,1.928,1.928,0,0,0-1.438-.412" transform="translate(-111.759 -191.778)" fill="#010202"/><path d="M163.918,247.13a.5.5,0,0,0-.463.205.651.651,0,0,0-.205.463.5.5,0,0,0,.205.463.764.764,0,0,0,.463.205.5.5,0,0,0,.463-.205.764.764,0,0,0,.205-.463.7.7,0,0,0-.668-.668" transform="translate(-144.742 -219.112)" fill="#010202"/><path d="M181.346,215.7a2.043,2.043,0,0,0-2.159,0,1.753,1.753,0,0,0-.72.874,3.6,3.6,0,0,0,0,2.673,2.016,2.016,0,0,0,.72.874,2.043,2.043,0,0,0,2.159,0,1.752,1.752,0,0,0,.72-.874,3.6,3.6,0,0,0,0-2.673,1.757,1.757,0,0,0-.72-.874m-.359,3.342a.748.748,0,0,1-.668.359.7.7,0,0,1-.668-.359,2.845,2.845,0,0,1,0-2.365.748.748,0,0,1,.668-.359.7.7,0,0,1,.668.359,2.845,2.845,0,0,1,0,2.365" transform="translate(-158.006 -190.971)" fill="#010202"/><path d="M244.35,207.115h-2.16c-.051,0-.154-.051-.154-.1l-.668-2.057a.2.2,0,0,0-.359,0l-.668,2.057c0,.051-.1.1-.154.1h-2.16a.169.169,0,0,0-.1.308l1.748,1.286c.051.051.1.1.051.205l-.668,2.057c-.051.154.154.308.257.205l1.748-1.286a.157.157,0,0,1,.205,0l1.748,1.286a.171.171,0,0,0,.257-.205l-.668-2.057a.31.31,0,0,1,.051-.205l1.748-1.286c.2-.1.152-.308-.053-.308" transform="translate(-210.883 -181.617)" fill="#e52421"/><path d="M305.57,207.115h-2.16c-.051,0-.154-.051-.154-.1l-.668-2.057a.2.2,0,0,0-.359,0l-.668,2.057c0,.051-.1.1-.154.1h-2.16a.169.169,0,0,0-.1.308l1.748,1.286c.051.051.1.1.051.205l-.668,2.057c-.051.154.154.308.257.205l1.748-1.286a.157.157,0,0,1,.205,0l1.748,1.286a.171.171,0,0,0,.257-.205l-.668-2.057a.31.31,0,0,1,.051-.205l1.748-1.286c.152-.1.1-.308-.053-.308" transform="translate(-265.162 -181.617)" fill="#e52421"/><path d="M368.14,207.115h-2.16c-.051,0-.154-.051-.154-.1l-.668-2.057a.2.2,0,0,0-.359,0l-.668,2.057c0,.051-.1.1-.154.1h-2.16a.169.169,0,0,0-.1.308l1.748,1.286c.051.051.1.1.051.205l-.668,2.057c-.051.154.154.308.257.205l1.748-1.286a.157.157,0,0,1,.205,0l1.748,1.286a.171.171,0,0,0,.257-.205l-.668-2.057a.31.31,0,0,1,.051-.205l1.748-1.286c.153-.1.1-.308-.053-.308" transform="translate(-320.639 -181.617)" fill="#e52421"/><path d="M430.27,207.115h-2.16c-.051,0-.154-.051-.154-.1l-.668-2.057a.2.2,0,0,0-.359,0l-.668,2.057c0,.051-.1.1-.154.1h-2.16a.169.169,0,0,0-.1.308l1.748,1.286c.051.051.1.1.051.205l-.668,2.057c-.051.154.154.308.257.205l1.748-1.286a.157.157,0,0,1,.205,0l1.748,1.286a.171.171,0,0,0,.257-.205l-.668-2.057a.31.31,0,0,1,.051-.205l1.748-1.286c.152-.1.1-.308-.053-.308" transform="translate(-375.725 -181.617)" fill="#e52421"/><path d="M491.133,207.434a.169.169,0,0,0-.1-.308h-2.16c-.051,0-.154-.051-.154-.1l-.668-2.057a.2.2,0,0,0-.359,0l-.668,2.057c0,.051-.1.1-.154.1h-2.16a.169.169,0,0,0-.1.308l1.748,1.286c.051.051.1.1.051.205l-.668,2.057c-.051.154.154.308.257.205l1.748-1.286a.157.157,0,0,1,.205,0l1.748,1.286a.171.171,0,0,0,.257-.205l-.668-2.057a.31.31,0,0,1,.051-.205Z" transform="translate(-429.596 -181.626)" fill="#e52421"/></g></g></g></svg>