<svg xmlns="http://www.w3.org/2000/svg" xmlns:xlink="http://www.w3.org/1999/xlink" width="200" height="164" viewBox="0 0 200 164">
  <defs>
    <clipPath id="clip-path">
      <rect id="Rectangle_4" data-name="Rectangle 4" width="70.575" height="39.896" fill="none"/>
    </clipPath>
  </defs>
  <g id="WSJ" transform="translate(-170 -589)">
    <g id="Group_202" data-name="Group 202" transform="translate(0 -2)">
      <g id="Path_107" data-name="Path 107" transform="translate(170 591)" fill="#fff">
        <path d="M 199.5 163.5 L 0.5 163.5 L 0.5 0.5 L 199.5 0.5 L 199.5 163.5 Z" stroke="none"/>
        <path d="M 1 1 L 1 163 L 199 163 L 199 1 L 1 1 M 0 0 L 200 0 L 200 164 L 0 164 L 0 0 Z" stroke="none" fill="#707070"/>
      </g>
    </g>
    <g id="Group_6" data-name="Group 6" transform="translate(235 651)">
      <g id="Group_5" data-name="Group 5" clip-path="url(#clip-path)">
        <path id="Path_1" data-name="Path 1" d="M2.805,5.488c-.746-3.373-.913-3.952-2-4.23L0,1.035v-.8H10.13v.8L9.273,1.2c-1.826.4-1.659,2.226-1.147,4.686l4.519,22.43,3.317-17.855-1.2-6.122c-.456-2.171-.635-2.861-1.77-3.15l-.746-.156v-.8H22.72v.8l-1.258.234c-1.892.345-1.6,2.4-1.147,4.631l4.352,22.43L28.965,7.1c.8-4.408.4-5.488-1.314-5.833l-1.2-.234v-.8h7.269v.8l-.8.289c-1.147.4-1.436,1.492-2.226,5.265L23.711,39.9H22.219L16.842,13.915,11.978,39.9H10.085Zm40.163,34.4c-3.317,0-4.464-2.293-5.555-2.293-.635,0-1.369.167-1.948,2.059h-.69V26.6h.857c.69,7.38,3.429,12.011,7.269,12.011,2.571,0,4.352-2.349,4.352-6.579C47.254,23.109,34.5,19.28,34.5,9.384,34.5,4.063,37.191,0,42.044,0c3.15,0,3.774,2.059,5.087,2.059.746,0,1.258-.568,1.547-1.826h.69V13.28h-.857c-.69-6.579-2.4-12.011-6.523-12.011-2.861,0-3.373,2.861-3.373,4.809,0,8.527,12.757,11.443,12.757,23.343C51.384,35.477,48.067,39.885,42.968,39.885Zm24.779-9.328c0,6.122-3.095,9.328-7.837,9.328-4.3,0-6.813-3.5-6.757-7.325.056-2.972,2.226-4.464,4.007-4.23a2.641,2.641,0,0,1,2.349,3.095c-.167,2.861-3.262,2.75-3.373,4.519-.111,1.091,1.314,2.694,3.15,2.694,3.206,0,3.206-4.063,3.206-7.158V3.718c0-1.6-.512-2.059-1.77-2.349L59.3,1.024V.234H70.575v.8l-1.258.345c-1.147.289-1.547.8-1.547,2.4Z"/>
      </g>
    </g>
  </g>
</svg>
