<svg xmlns="http://www.w3.org/2000/svg" xmlns:xlink="http://www.w3.org/1999/xlink" width="200" height="164" viewBox="0 0 200 164">
  <defs>
    <clipPath id="clip-path">
      <rect id="Rectangle_5" data-name="Rectangle 5" width="154.7" height="23.021" fill="none"/>
    </clipPath>
  </defs>
  <g id="FOX" transform="translate(-170 -582)">
    <g id="WSJ" transform="translate(0 -7)">
      <g id="Group_202" data-name="Group 202" transform="translate(0 -2)">
        <path id="Path_107" data-name="Path 107" d="M0,0H200V164H0Z" transform="translate(170 591)" fill="#fff"/>
      </g>
    </g>
    <g id="Group_8" data-name="Group 8" transform="translate(192.15 663.5)">
      <g id="Group_7" data-name="Group 7" transform="translate(0.85 -11.5)" clip-path="url(#clip-path)">
        <path id="Path_2" data-name="Path 2" d="M552.909,7.716c0,3.113-.313,12.753-.313,12.753,0,1.866.623,2.7,2.387,2.7V24h-6.947v-.835a2.37,2.37,0,0,0,2.7-2.7l.623-15.76a2.349,2.349,0,0,0-2.387-1.761V2.22h5.289l5.6,14.725,5.7-14.725h4.768v.725a1.82,1.82,0,0,0-2.074,2.074l.623,15.243c0,2.278.412,2.9,2.278,2.9v.831H563.17v-.831c1.556,0,2.282-.514,2.18-2.9,0,0-.31-10.68-.416-12.546L561.1,18.294a39.77,39.77,0,0,0-1.451,4.563l-1.246.1c-.31-1.141-1.141-3.215-1.141-3.215S554.05,10.723,552.909,7.716ZM546.374,24.1a5.127,5.127,0,0,0-1.246-.1c-.828,0-2.282.412-4.042.412-6.739,0-11.718-4.042-11.718-11.511,0-6.324,4.666-11.2,11.82-11.2a14.211,14.211,0,0,1,5.081.937c.31-.313.416-.518.725-.831h.623c-.1,1.141-.518,4.877-.518,4.877h-.623c-.415-2.18-1.553-3.63-5.183-3.63-4.356,0-8.3,3.422-8.3,9.75,0,7.155,4.042,10.264,8.5,10.264a6.384,6.384,0,0,0,5.806-3.732l.725.31L546.374,24.1ZM526.779,6.262h-.725c-.1-1.972-.725-2.592-2.282-2.592h-3.007V19.952c0,2.7.518,3.211,2.282,3.211v.831h-7.775v-.831c1.761,0,2.282-.514,2.282-3.317V3.67h-3.01c-1.972,0-2.282.518-2.8,2.592h-.729l.518-4.665.518.1c.208.518.623.518,1.866.518h10.056c1.866,0,2.282,0,2.7-.623h.623Z" transform="translate(-479.392 -1.494)"/>
        <path id="Path_3" data-name="Path 3" d="M25.4,23.017a10.015,10.015,0,0,1-3.422-.514,5.934,5.934,0,0,1-1.761-.729,5.648,5.648,0,0,0-.729.933l-.623-.2.518-4.877.725.1c.415,2.282,1.972,3.94,5.183,3.94a4.2,4.2,0,0,0,4.148-4.352c0-1.866-.725-2.8-3.215-4.665A21.507,21.507,0,0,1,24.056,11.2c-2.282-1.454-3.736-3.113-3.736-5.81C20.32,2.278,22.912.2,26.334.2a7.856,7.856,0,0,1,3.63.827L30.693.2l.518.1-.518,4.461-.729-.1c0-2.074-1.243-3.007-3.317-3.007-1.968,0-3.423,1.039-3.423,3.007,0,1.761,1.349,2.9,2.9,3.94.827.518,1.451.933,2.074,1.349,3.63,2.592,4.458,4.25,4.458,6.739C32.662,20.32,29.863,23.017,25.4,23.017ZM13.581,4.768h-.827c0-1.866-.831-2.592-2.489-2.592H5.6v8.19H8.606c1.556,0,1.866-.827,2.074-2.176H11.4V14H10.68c-.208-1.553-.518-2.176-2.176-2.176H5.6v6.947c0,2.592.623,2.9,2.282,2.9V22.5H0v-.831c1.968,0,2.278-.514,2.278-2.9V3.525c0-1.451-.623-2.074-2.278-2.074V.725H10.782c1.866,0,2.278-.1,2.592-.725H14.1ZM125.464,6.014V18.458c0,2.7.623,3.211,2.282,3.211V22.5H115.51v-.831c.933,0,1.761-.31,1.761-.933a7.627,7.627,0,0,0-.31-1.866l-.937-3.007h-6.842a33.949,33.949,0,0,0-1.349,4.768c0,.827.933,1.035,1.556,1.035V22.5h-5.7v-.827c1.035,0,1.866-.1,2.592-2.278l5.289-16.9a1.545,1.545,0,0,0-1.447-1.039V.725h4.665l5.6,17.732c.518,1.863,1.035,2.8,1.866,3.211,1.243-.412,1.553-.827,1.553-3.211V3.525c-.933-1.246-1.035-2.074-2.8-2.074V.725h5.289L135,15.553V4.25c0-2.278-.518-2.8-2.282-2.8V.725h11.613v.725c-.725,0-1.349.31-1.349,1.039a5.669,5.669,0,0,0,.412,1.658l3.317,7.155,3.215-6.951a3.78,3.78,0,0,0,.623-1.968c0-.623-.415-.933-1.349-.933V.725h5.5v.725c-1.349,0-2.176,1.247-2.8,2.7l-4.25,8.711v5.7c0,2.486.623,3.109,2.278,3.109V22.5h-7.88v-.834c1.662,0,2.282-.623,2.282-3.109V13.687l-4.563-9.641c-.827-1.866-1.141-2.282-1.658-2.592-1.035.416-1.349,1.141-1.349,2.8V20.222s.1,1.247.208,2.7l-1.349.1ZM112.5,4.975l-2.9,9.437h6.014Z"/>
        <path id="Path_4" data-name="Path 4" d="M263.093,25.408h-1.556v4.461c0,2.282.623,2.8,2.384,2.8V33.5h-7.986v-.835c1.662,0,2.282-.623,2.282-2.9V15.144c0-2.278-.62-2.7-2.282-2.7v-.725h6.014c5.806,0,9.229,1.764,9.229,6.532C271.181,23.232,267.033,25.408,263.093,25.408Zm-1.039-12.236h-.518v10.68h.933c3.422,0,5.187-1.553,5.187-5.5s-1.56-5.183-5.6-5.183M226.9,29.348c-3.94,0-6.634-2.8-6.634-6.842a6.6,6.6,0,0,1,6.634-6.842,6.516,6.516,0,0,1,6.532,6.842,6.642,6.642,0,0,1-6.532,6.842m0-12.44c-2.7,0-3.63,2.592-3.63,5.6,0,2.8.831,5.6,3.63,5.6,2.7,0,3.525-2.8,3.525-5.7,0-2.8-1.035-5.5-3.525-5.5M181.28,28.1v-.729c1.035,0,1.243-.31,1.243-.62a3.021,3.021,0,0,0-.208-1.039s-.208-.827-.415-1.451h-4.042l-.412,1.349a3.017,3.017,0,0,0-.208,1.035c0,.415.415.725,1.035.725V28.1h-4.046v-.729c1.035,0,1.451-.31,1.866-1.451l3.113-9.331a.953.953,0,0,0-1.035-.725v-.725h3.317c2.7,7.88,3.423,9.954,3.423,9.954.518,1.764,1.035,2.278,1.866,2.278V28.1Zm-1.454-10.06-1.553,5.081h3.215Z" transform="translate(-163.445 -10.996)"/>
      </g>
    </g>
  </g>
</svg>
